<svg width="107" height="34" viewBox="0 0 107 34" fill="none" xmlns="http://www.w3.org/2000/svg">
<path d="M0.0138495 21V0.636363H14.2127V4.63352H4.93572V8.80966H13.4869V12.8168H4.93572V17.0028H14.2127V21H0.0138495ZM17.2951 21V0.636363H22.217V8.80966H30.2411V0.636363H35.1531V21H30.2411V12.8168H22.217V21H17.2951ZM43.1623 0.636363V21H38.2404V0.636363H43.1623ZM65.4723 10.8182C65.4723 13.0587 65.0414 14.9579 64.1797 16.5156C63.3179 18.0734 62.1513 19.2566 60.6797 20.0653C59.2147 20.8741 57.5708 21.2784 55.7479 21.2784C53.9183 21.2784 52.2711 20.8707 50.8061 20.0554C49.3411 19.2401 48.1778 18.0568 47.3161 16.5057C46.4609 14.9479 46.0334 13.0521 46.0334 10.8182C46.0334 8.57765 46.4609 6.6785 47.3161 5.12074C48.1778 3.56297 49.3411 2.37973 50.8061 1.57102C52.2711 0.76231 53.9183 0.357954 55.7479 0.357954C57.5708 0.357954 59.2147 0.76231 60.6797 1.57102C62.1513 2.37973 63.3179 3.56297 64.1797 5.12074C65.0414 6.6785 65.4723 8.57765 65.4723 10.8182ZM60.4411 10.8182C60.4411 9.49242 60.2521 8.37216 59.8743 7.45739C59.5031 6.54261 58.9661 5.8499 58.2635 5.37926C57.5675 4.90862 56.7289 4.67329 55.7479 4.67329C54.7734 4.67329 53.9349 4.90862 53.2322 5.37926C52.5296 5.8499 51.9893 6.54261 51.6115 7.45739C51.2403 8.37216 51.0547 9.49242 51.0547 10.8182C51.0547 12.1439 51.2403 13.2642 51.6115 14.179C51.9893 15.0937 52.5296 15.7865 53.2322 16.2571C53.9349 16.7277 54.7734 16.9631 55.7479 16.9631C56.7289 16.9631 57.5675 16.7277 58.2635 16.2571C58.9661 15.7865 59.5031 15.0937 59.8743 14.179C60.2521 13.2642 60.4411 12.1439 60.4411 10.8182ZM68.3459 21V0.636363H76.8374C78.362 0.636363 79.638 0.851799 80.6655 1.28267C81.6996 1.71354 82.4751 2.31676 82.9922 3.09233C83.5159 3.8679 83.7777 4.7661 83.7777 5.78693C83.7777 6.5625 83.6153 7.25521 83.2905 7.86506C82.9657 8.46828 82.5182 8.96875 81.9482 9.36648C81.3781 9.7642 80.7185 10.0426 79.9695 10.2017V10.4006C80.7914 10.4403 81.5504 10.6624 82.2464 11.0668C82.9491 11.4711 83.5125 12.0346 83.9368 12.7571C84.361 13.473 84.5732 14.3215 84.5732 15.3026C84.5732 16.3963 84.2947 17.3741 83.7379 18.2358C83.1811 19.0909 82.3757 19.767 81.3217 20.2642C80.2678 20.7547 78.9884 21 77.4837 21H68.3459ZM73.2678 17.0327H76.3104C77.3776 17.0327 78.1631 16.8305 78.6669 16.4261C79.1773 16.0218 79.4325 15.4583 79.4325 14.7358C79.4325 14.2121 79.3099 13.7614 79.0646 13.3835C78.8194 12.9991 78.4714 12.7041 78.0206 12.4986C77.5698 12.2865 77.0296 12.1804 76.3999 12.1804H73.2678V17.0327ZM73.2678 9.00852H75.9922C76.5291 9.00852 77.0064 8.91903 77.424 8.74006C77.8416 8.56108 78.1664 8.30256 78.3984 7.96449C78.6371 7.62642 78.7564 7.21875 78.7564 6.74148C78.7564 6.05871 78.5144 5.52178 78.0305 5.13068C77.5466 4.73958 76.8937 4.54403 76.0717 4.54403H73.2678V9.00852ZM91.3445 21H86.0547L92.9254 0.636363H99.478L106.349 21H101.059L96.2763 5.76704H96.1172L91.3445 21ZM90.6385 12.9858H101.695V16.7244H90.6385V12.9858Z" fill="#2A7C6F"/>
<path d="M48.0112 33.1101C47.4998 33.1101 47.0583 33.0189 46.6866 32.8366C46.3173 32.6544 46.0332 32.4093 45.8343 32.1016C45.6355 31.7914 45.536 31.447 45.536 31.0682C45.536 30.7888 45.5905 30.5426 45.6994 30.3295C45.8107 30.1141 45.9634 29.9164 46.1575 29.7365C46.354 29.5542 46.5824 29.3755 46.8429 29.2003L48.3699 28.2237C48.5427 28.1148 48.6646 28 48.7356 27.8793C48.809 27.7585 48.8457 27.6378 48.8457 27.517C48.8457 27.3868 48.7948 27.2685 48.693 27.1619C48.5936 27.0554 48.4456 27.0033 48.2491 27.0057C48.1236 27.0057 48.0147 27.0317 47.9224 27.0838C47.8301 27.1359 47.7579 27.2057 47.7058 27.2933C47.6561 27.3809 47.6312 27.4804 47.6312 27.5916C47.6312 27.736 47.6726 27.884 47.7555 28.0355C47.8384 28.187 47.9496 28.348 48.0893 28.5185C48.2314 28.6889 48.3888 28.8771 48.5616 29.0831L52.0453 33H50.2768L47.3613 29.8359C47.1956 29.6513 47.0216 29.4441 46.8393 29.2145C46.657 28.9848 46.5031 28.7339 46.3777 28.4616C46.2522 28.187 46.1895 27.8887 46.1895 27.5668C46.1895 27.2045 46.2747 26.8767 46.4451 26.5831C46.6156 26.2895 46.8547 26.0563 47.1625 25.8835C47.4726 25.7083 47.8336 25.6207 48.2456 25.6207C48.6433 25.6207 48.9866 25.7024 49.2754 25.8658C49.5642 26.0291 49.7868 26.2457 49.943 26.5156C50.0993 26.7855 50.1774 27.0814 50.1774 27.4034C50.1774 27.7443 50.0933 28.058 49.9252 28.3445C49.7572 28.6286 49.5192 28.8807 49.2115 29.1009L47.7164 30.1697C47.5578 30.2834 47.4335 30.4053 47.3436 30.5355C47.2536 30.6634 47.2086 30.803 47.2086 30.9545C47.2086 31.1108 47.2453 31.2469 47.3187 31.3629C47.3945 31.4789 47.501 31.5701 47.6383 31.6364C47.7756 31.7027 47.9366 31.7358 48.1213 31.7358C48.3675 31.7358 48.6137 31.6778 48.8599 31.5618C49.1061 31.4434 49.331 31.2777 49.5346 31.0646C49.7382 30.8492 49.9016 30.5947 50.0247 30.3011C50.1478 30.0052 50.2093 29.6809 50.2093 29.3281H51.6085C51.6085 29.7637 51.5623 30.1686 51.47 30.5426C51.3777 30.9143 51.2392 31.2481 51.0545 31.544C50.8722 31.8376 50.6461 32.0814 50.3762 32.2756C50.291 32.3229 50.2082 32.3679 50.1277 32.4105C50.0472 32.4531 49.9643 32.4981 49.8791 32.5455C49.5997 32.7467 49.2967 32.8911 48.97 32.9787C48.6457 33.0663 48.3261 33.1101 48.0112 33.1101ZM61.3297 28.3622H59.5542C59.5305 28.1799 59.4819 28.0154 59.4086 27.8686C59.3352 27.7218 59.2381 27.5964 59.1174 27.4922C58.9966 27.388 58.8534 27.3087 58.6877 27.2543C58.5243 27.1974 58.3432 27.169 58.1444 27.169C57.7916 27.169 57.4874 27.2554 57.2317 27.4283C56.9784 27.6011 56.7831 27.8509 56.6458 28.1776C56.5108 28.5043 56.4434 28.8996 56.4434 29.3636C56.4434 29.8466 56.512 30.2514 56.6493 30.5781C56.789 30.9025 56.9843 31.1475 57.2353 31.3132C57.4886 31.4766 57.7881 31.5582 58.1337 31.5582C58.3278 31.5582 58.5042 31.5334 58.6628 31.4837C58.8238 31.4339 58.9647 31.3617 59.0854 31.267C59.2085 31.17 59.3091 31.0528 59.3873 30.9155C59.4677 30.7758 59.5234 30.6184 59.5542 30.4432L61.3297 30.4538C61.2989 30.7758 61.2054 31.093 61.0492 31.4055C60.8953 31.718 60.6834 32.0033 60.4135 32.2614C60.1436 32.517 59.8146 32.7206 59.4263 32.8722C59.0404 33.0237 58.5977 33.0994 58.0982 33.0994C57.44 33.0994 56.8506 32.955 56.3297 32.6662C55.8113 32.375 55.4017 31.9512 55.101 31.3949C54.8004 30.8385 54.65 30.1615 54.65 29.3636C54.65 28.5634 54.8027 27.8852 55.1081 27.3288C55.4135 26.7725 55.8266 26.3499 56.3475 26.0611C56.8683 25.7723 57.4519 25.6278 58.0982 25.6278C58.5385 25.6278 58.9457 25.6894 59.3198 25.8125C59.6938 25.9332 60.0229 26.1108 60.307 26.3452C60.5911 26.5772 60.8219 26.8625 60.9995 27.201C61.177 27.5395 61.2871 27.9266 61.3297 28.3622ZM69.1999 29.3636C69.1999 30.1638 69.046 30.8421 68.7383 31.3984C68.4305 31.9548 68.0138 32.3774 67.4883 32.6662C66.9651 32.955 66.378 33.0994 65.7269 33.0994C65.0735 33.0994 64.4852 32.9538 63.962 32.6626C63.4388 32.3714 63.0233 31.9489 62.7156 31.3949C62.4102 30.8385 62.2575 30.1615 62.2575 29.3636C62.2575 28.5634 62.4102 27.8852 62.7156 27.3288C63.0233 26.7725 63.4388 26.3499 63.962 26.0611C64.4852 25.7723 65.0735 25.6278 65.7269 25.6278C66.378 25.6278 66.9651 25.7723 67.4883 26.0611C68.0138 26.3499 68.4305 26.7725 68.7383 27.3288C69.046 27.8852 69.1999 28.5634 69.1999 29.3636ZM67.4031 29.3636C67.4031 28.8902 67.3356 28.4901 67.2006 28.1634C67.0681 27.8366 66.8763 27.5893 66.6254 27.4212C66.3768 27.2531 66.0773 27.169 65.7269 27.169C65.3789 27.169 65.0794 27.2531 64.8285 27.4212C64.5775 27.5893 64.3846 27.8366 64.2496 28.1634C64.1171 28.4901 64.0508 28.8902 64.0508 29.3636C64.0508 29.8371 64.1171 30.2372 64.2496 30.5639C64.3846 30.8906 64.5775 31.138 64.8285 31.3061C65.0794 31.4742 65.3789 31.5582 65.7269 31.5582C66.0773 31.5582 66.3768 31.4742 66.6254 31.3061C66.8763 31.138 67.0681 30.8906 67.2006 30.5639C67.3356 30.2372 67.4031 29.8371 67.4031 29.3636ZM70.2262 25.7273H72.4031L74.2496 30.2301H74.3349L76.1815 25.7273H78.3583V33H76.6467V28.5327H76.5863L74.8391 32.9538H73.7454L71.9982 28.5078H71.9379V33H70.2262V25.7273ZM79.4547 33V25.7273H82.459C83.0035 25.7273 83.4734 25.8338 83.8688 26.0469C84.2665 26.2576 84.5731 26.5523 84.7885 26.9311C85.004 27.3075 85.1117 27.7455 85.1117 28.245C85.1117 28.7469 85.0016 29.1861 84.7814 29.5625C84.5636 29.9366 84.2523 30.2266 83.8475 30.4325C83.4426 30.6385 82.9621 30.7415 82.4057 30.7415H80.552V29.3565H82.079C82.3442 29.3565 82.5655 29.3104 82.7431 29.218C82.923 29.1257 83.0591 28.9967 83.1515 28.831C83.2438 28.6629 83.29 28.4676 83.29 28.245C83.29 28.0201 83.2438 27.826 83.1515 27.6626C83.0591 27.4969 82.923 27.3691 82.7431 27.2791C82.5632 27.1892 82.3418 27.1442 82.079 27.1442H81.2125V33H79.4547ZM86.6724 33H84.7832L87.237 25.7273H89.5772L92.0311 33H90.1419L88.4338 27.5597H88.377L86.6724 33ZM86.4203 30.1378H90.3691V31.473H86.4203V30.1378ZM99.0037 25.7273V33H97.5123L94.6181 28.8026H94.5719V33H92.8141V25.7273H94.3269L97.1891 29.9176H97.2495V25.7273H99.0037ZM99.7468 25.7273H101.711L103.248 28.7706H103.312L104.85 25.7273H106.814L104.154 30.571V33H102.407V30.571L99.7468 25.7273Z" fill="#67B0A5"/>
</svg>
